<svg version="1.2" xmlns="http://www.w3.org/2000/svg" viewBox="0 0 512 512" width="512" height="512">
	<defs>
		<linearGradient id="g1" x2="1" gradientUnits="userSpaceOnUse" gradientTransform="matrix(0,512.018,-512.018,0,256.005,.407)">
			<stop offset="0" stop-color="#333824" stop-opacity=".72"/>
			<stop offset="1" stop-color="#000000" stop-opacity=".8"/>
		</linearGradient>
		<linearGradient id="g2" x2="1" gradientUnits="userSpaceOnUse" gradientTransform="matrix(0,512.018,-512.018,0,256.005,.407)">
			<stop offset="0" stop-color="#333824" stop-opacity=".72"/>
			<stop offset="1" stop-color="#000000" stop-opacity=".8"/>
		</linearGradient>
		<linearGradient id="g3" x2="1" gradientUnits="userSpaceOnUse" gradientTransform="matrix(0,512.018,-512.018,0,256.005,.407)">
			<stop offset="0" stop-color="#333824" stop-opacity=".72"/>
			<stop offset="1" stop-color="#000000" stop-opacity=".8"/>
		</linearGradient>
		<linearGradient id="g4" x2="1" gradientUnits="userSpaceOnUse" gradientTransform="matrix(0,512.018,-512.018,0,256.005,.407)">
			<stop offset="0" stop-color="#333824" stop-opacity=".72"/>
			<stop offset="1" stop-color="#000000" stop-opacity=".8"/>
		</linearGradient>
		<linearGradient id="g5" x2="1" gradientUnits="userSpaceOnUse" gradientTransform="matrix(0,512.018,-512.018,0,256.005,.407)">
			<stop offset="0" stop-color="#333824" stop-opacity=".72"/>
			<stop offset="1" stop-color="#000000" stop-opacity=".8"/>
		</linearGradient>
		<linearGradient id="g6" x2="1" gradientUnits="userSpaceOnUse" gradientTransform="matrix(0,512.018,-512.018,0,256.005,.407)">
			<stop offset="0" stop-color="#333824" stop-opacity=".72"/>
			<stop offset="1" stop-color="#000000" stop-opacity=".8"/>
		</linearGradient>
		<linearGradient id="g7" x2="1" gradientUnits="userSpaceOnUse" gradientTransform="matrix(0,512.018,-512.018,0,256.005,.407)">
			<stop offset="0" stop-color="#333824" stop-opacity=".72"/>
			<stop offset="1" stop-color="#000000" stop-opacity=".8"/>
		</linearGradient>
		<linearGradient id="g8" x2="1" gradientUnits="userSpaceOnUse" gradientTransform="matrix(0,512.018,-512.018,0,256.005,.407)">
			<stop offset="0" stop-color="#333824" stop-opacity=".72"/>
			<stop offset="1" stop-color="#000000" stop-opacity=".8"/>
		</linearGradient>
		<linearGradient id="g9" x2="1" gradientUnits="userSpaceOnUse" gradientTransform="matrix(0,512.018,-512.018,0,256.005,.407)">
			<stop offset="0" stop-color="#333824" stop-opacity=".72"/>
			<stop offset="1" stop-color="#000000" stop-opacity=".8"/>
		</linearGradient>
		<linearGradient id="g10" x2="1" gradientUnits="userSpaceOnUse" gradientTransform="matrix(0,512.018,-512.018,0,256.005,.407)">
			<stop offset="0" stop-color="#333824" stop-opacity=".72"/>
			<stop offset="1" stop-color="#000000" stop-opacity=".8"/>
		</linearGradient>
		<linearGradient id="g11" x2="1" gradientUnits="userSpaceOnUse" gradientTransform="matrix(0,512.018,-512.018,0,256.005,.407)">
			<stop offset="0" stop-color="#333824" stop-opacity=".72"/>
			<stop offset="1" stop-color="#000000" stop-opacity=".8"/>
		</linearGradient>
		<filter x="-50%" y="-50%" width="200%" height="200%" id="f1"> <feGaussianBlur stdDeviation="75"/> </filter>
	</defs>
	<style>
		.s0 { fill: url(#g1) } 
		.s1 { fill: url(#g2) } 
		.s2 { fill: url(#g3) } 
		.s3 { fill: url(#g4) } 
		.s4 { fill: url(#g5) } 
		.s5 { fill: url(#g6) } 
		.s6 { fill: url(#g7) } 
		.s7 { fill: url(#g8) } 
		.s8 { fill: url(#g9) } 
		.s9 { fill: url(#g10) } 
		.s10 { fill: url(#g11) } 
		.s11 { filter: url(#f1);fill: #000000;stroke: #000000;stroke-width: .6 } 
		.s12 { opacity: .83;fill: #bfffdd } 
	</style>
	<path fill-rule="evenodd" class="s0" d="m108.39 0.4h295.22c59.84 0 108.39 48.55 108.39 108.39v295.22c0 59.84-48.55 108.39-108.39 108.39h-295.22c-59.84 0-108.39-48.55-108.39-108.39v-295.22c0-59.84 48.55-108.39 108.39-108.39z"/>
	<path fill-rule="evenodd" class="s1" d="m108.39 0.4h295.22c59.84 0 108.39 48.55 108.39 108.39v295.22c0 59.84-48.55 108.39-108.39 108.39h-295.22c-59.84 0-108.39-48.55-108.39-108.39v-295.22c0-59.84 48.55-108.39 108.39-108.39z"/>
	<path fill-rule="evenodd" class="s2" d="m108.39 0.4h295.22c59.84 0 108.39 48.55 108.39 108.39v295.22c0 59.84-48.55 108.39-108.39 108.39h-295.22c-59.84 0-108.39-48.55-108.39-108.39v-295.22c0-59.84 48.55-108.39 108.39-108.39z"/>
	<path fill-rule="evenodd" class="s3" d="m108.39 0.4h295.22c59.84 0 108.39 48.55 108.39 108.39v295.22c0 59.84-48.55 108.39-108.39 108.39h-295.22c-59.84 0-108.39-48.55-108.39-108.39v-295.22c0-59.84 48.55-108.39 108.39-108.39z"/>
	<path fill-rule="evenodd" class="s4" d="m108.39 0.4h295.22c59.84 0 108.39 48.55 108.39 108.39v295.22c0 59.84-48.55 108.39-108.39 108.39h-295.22c-59.84 0-108.39-48.55-108.39-108.39v-295.22c0-59.84 48.55-108.39 108.39-108.39z"/>
	<path fill-rule="evenodd" class="s5" d="m108.39 0.4h295.22c59.84 0 108.39 48.55 108.39 108.39v295.22c0 59.84-48.55 108.39-108.39 108.39h-295.22c-59.84 0-108.39-48.55-108.39-108.39v-295.22c0-59.84 48.55-108.39 108.39-108.39z"/>
	<path fill-rule="evenodd" class="s6" d="m108.39 0.4h295.22c59.84 0 108.39 48.55 108.39 108.39v295.22c0 59.84-48.55 108.39-108.39 108.39h-295.22c-59.84 0-108.39-48.55-108.39-108.39v-295.22c0-59.84 48.55-108.39 108.39-108.39z"/>
	<path fill-rule="evenodd" class="s7" d="m108.39 0.4h295.22c59.84 0 108.39 48.55 108.39 108.39v295.22c0 59.84-48.55 108.39-108.39 108.39h-295.22c-59.84 0-108.39-48.55-108.39-108.39v-295.22c0-59.84 48.55-108.39 108.39-108.39z"/>
	<path fill-rule="evenodd" class="s8" d="m108.39 0.4h295.22c59.84 0 108.39 48.55 108.39 108.39v295.22c0 59.84-48.55 108.39-108.39 108.39h-295.22c-59.84 0-108.39-48.55-108.39-108.39v-295.22c0-59.84 48.55-108.39 108.39-108.39z"/>
	<path fill-rule="evenodd" class="s9" d="m108.39 0.4h295.22c59.84 0 108.39 48.55 108.39 108.39v295.22c0 59.84-48.55 108.39-108.39 108.39h-295.22c-59.84 0-108.39-48.55-108.39-108.39v-295.22c0-59.84 48.55-108.39 108.39-108.39z"/>
	<path fill-rule="evenodd" class="s10" d="m108.39 0.4h295.22c59.84 0 108.39 48.55 108.39 108.39v295.22c0 59.84-48.55 108.39-108.39 108.39h-295.22c-59.84 0-108.39-48.55-108.39-108.39v-295.22c0-59.84 48.55-108.39 108.39-108.39z"/>
	<path class="s11" d="m345.24 84.94c-7.81 0-15.41 1.48-22.59 4.43-7.18 2.96-13.61 7.39-19.1 12.78-5.49 5.48-9.82 12.03-12.77 19.1-2.96 7.18-4.44 14.88-4.44 22.59q0 2.85 0.22 5.8 0.31 2.85 0.95 5.7 0.52 2.96 1.37 5.7 0.84 2.74 2 5.49 1.37 3.27 3.17 6.33 1.69 3.17 3.8 6.02 2.22 2.85 4.64 5.49 2.43 2.53 5.17 4.85 1.69 1.37 3.59 2.64 1.8 1.37 3.7 2.43 1.9 1.16 3.9 2.21 1.9 0.95 4.01 1.8 0.95 0.42 1.9 0.74 1.06 0.42 2.01 0.73 1.05 0.32 2 0.64 1.06 0.21 2.11 0.53v16.67q0 0.11 0 0.32 0 0.21 0 0.42 0 0.11 0 0.32 0 0.21 0 0.31 0 0.22 0 0.43 0 0.21 0 0.31 0 0.21 0 0.43 0 0.1 0 0.31c-0.21 3.91-1.16 7.71-2.74 11.19-1.58 3.48-3.8 6.65-6.54 9.39-2.75 2.75-6.02 4.86-9.5 6.34-3.59 1.47-7.39 2.32-11.3 2.42q-0.1 0-0.21 0 0 0-0.1 0-0.11 0-0.21 0-0.11 0-0.21 0 0 0-0.11 0-0.11 0-0.21 0-0.11 0-0.21 0-0.11 0-0.11 0h-47.7-72.73v-49.18c6.02-1.79 11.72-4.54 16.89-8.13 5.07-3.59 9.61-8.02 13.41-13.09 3.69-5.06 6.65-10.66 8.55-16.57 2-6.01 3.06-12.24 3.06-18.47 0-7.81-1.59-15.41-4.54-22.58-2.96-7.18-7.28-13.62-12.77-19.11-5.49-5.49-11.93-9.81-19.11-12.77-7.07-2.95-14.77-4.43-22.48-4.43-7.81 0-15.41 1.48-22.58 4.43-7.08 2.96-13.62 7.28-19.11 12.77-5.49 5.49-9.81 11.93-12.77 19.11-2.95 7.17-4.43 14.77-4.43 22.58 0 6.23 0.95 12.46 2.95 18.37 2.01 6.01 4.86 11.61 8.55 16.67 3.8 4.97 8.34 9.4 13.41 12.99q7.75 5.54 16.78 8.23v114.94q-9.03 2.85-16.78 8.23c-5.18 3.59-9.61 8.02-13.41 13.09-3.69 5.06-6.65 10.66-8.55 16.57-2 6.01-3.06 12.24-3.06 18.47 0 7.7 1.59 15.41 4.54 22.59 2.96 7.07 7.28 13.61 12.77 19.1 5.49 5.38 11.93 9.71 19.11 12.77 7.17 2.96 14.77 4.43 22.48 4.43 7.81 0 15.41-1.47 22.58-4.43 7.18-3.06 13.62-7.39 19.11-12.77 5.49-5.49 9.81-12.03 12.77-19.1 2.95-7.18 4.43-14.89 4.43-22.59 0-6.23-0.95-12.46-2.95-18.47-2.01-5.91-4.86-11.51-8.66-16.57-3.69-5.07-8.23-9.5-13.3-13.09-5.17-3.59-10.87-6.33-16.89-8.23v-31.56h121.07 11.82q0.74-0.11 1.37-0.11 0.74-0.1 1.37-0.21 0.63-0.1 1.37-0.21 0.64-0.1 1.27-0.21 1.79-0.42 3.48-0.84 1.8-0.43 3.49-0.95 1.68-0.53 3.37-1.16 1.59-0.64 3.27-1.38c4.44-2.11 8.66-4.64 12.46-7.7 3.8-3.06 7.28-6.54 10.24-10.45 2.95-3.91 5.48-8.13 7.38-12.67 1.9-4.43 3.28-9.18 4.12-14.03v-19.32-15.51c5.7-2.01 10.98-4.96 15.83-8.55 4.75-3.7 8.97-8.02 12.46-12.98q5.22-7.44 7.91-16.15c1.9-5.7 2.85-11.72 2.85-17.73 0-7.71-1.58-15.41-4.54-22.59-2.95-7.07-7.28-13.62-12.77-19.1-5.49-5.39-11.92-9.82-19.1-12.78-7.18-2.95-14.78-4.43-22.48-4.43zm-0.21 26.7c4.32 0 8.44 0.74 12.45 2.43 3.91 1.59 7.5 4.01 10.45 6.97 3.06 3.06 5.38 6.65 7.07 10.55 1.59 3.91 2.43 8.13 2.43 12.35q0 3.7-0.84 7.28-0.85 3.59-2.43 6.86-1.59 3.28-3.91 6.13-2.32 2.95-5.17 5.17-2.11 1.69-4.54 2.95-2.32 1.27-4.85 2.22-2.64 0.84-5.28 1.27-2.64 0.52-5.38 0.52-0.42 0-0.95 0-0.42-0.1-0.95-0.1-0.42 0-0.95-0.11-0.42 0-0.95 0-1.27-0.21-2.64-0.52-1.37-0.22-2.64-0.64-1.37-0.31-2.64-0.84-1.26-0.53-2.43-1.16-1.26-0.53-2.42-1.27-1.16-0.63-2.22-1.48-1.06-0.74-2.11-1.58-1.06-0.85-2.01-1.8-2.21-2.32-4.01-4.96-1.69-2.63-2.95-5.59-1.16-2.95-1.8-6.02-0.63-3.16-0.63-6.33c0-4.22 0.84-8.44 2.43-12.35 1.69-3.9 4.01-7.49 7.07-10.55 2.95-2.96 6.54-5.38 10.45-6.97 3.9-1.69 8.13-2.43 12.35-2.43zm-183.23 0.43c4.33 0 8.55 0.84 12.46 2.53 3.9 1.58 7.49 4.01 10.44 6.97 3.06 2.95 5.39 6.54 7.08 10.44 1.58 4.02 2.42 8.24 2.42 12.46q0 4.12-1.05 8.02-0.95 4.01-2.96 7.6-2 3.59-4.85 6.54-2.85 3.06-6.34 5.18-1.9 1.26-3.9 2.21-2.11 0.85-4.33 1.48-2.11 0.63-4.43 0.95-2.22 0.32-4.54 0.32-2.22 0-4.43-0.32-2.22-0.32-4.33-0.84-2.22-0.64-4.22-1.59-2.11-0.84-4.01-2-3.48-2.22-6.33-5.18-2.85-3.06-4.86-6.64-2.01-3.59-3.06-7.6-1.06-4.01-1.06-8.13c0-4.22 0.85-8.44 2.43-12.46 1.69-3.9 4.01-7.49 7.07-10.44 2.96-2.96 6.55-5.39 10.45-6.97 3.91-1.69 8.13-2.53 12.35-2.53zm0 227.66q0.95 0 1.9 0 0.95 0.1 1.9 0.21 0.95 0.1 1.9 0.32 0.95 0.1 1.9 0.31c3.48 0.85 6.86 2.32 9.82 4.22 3.06 2.01 5.8 4.44 8.02 7.29 2.21 2.74 3.9 6.01 5.17 9.39 1.16 3.38 1.79 6.97 1.79 10.55 0 4.33-0.84 8.45-2.53 12.46-1.58 3.9-4.01 7.49-6.97 10.45-3.06 3.06-6.54 5.38-10.55 7.07-3.91 1.58-8.13 2.43-12.35 2.43-4.22 0-8.44-0.85-12.35-2.43-3.9-1.69-7.49-4.01-10.55-7.07-2.96-2.96-5.39-6.55-6.97-10.45-1.69-4.01-2.43-8.13-2.43-12.46 0-3.58 0.53-7.17 1.69-10.55 1.27-3.38 2.96-6.65 5.17-9.39 2.22-2.85 4.97-5.28 8.03-7.29 3.06-1.9 6.33-3.37 9.92-4.22q0.84-0.21 1.79-0.31 0.95-0.22 1.9-0.32 0.95-0.11 1.9-0.21 0.95 0 1.9 0z"/>
	<path class="s11" d="m345.24 84.94c-7.81 0-15.41 1.48-22.59 4.43-7.18 2.96-13.61 7.39-19.1 12.78-5.49 5.48-9.82 12.03-12.77 19.1-2.96 7.18-4.44 14.88-4.44 22.59q0 2.85 0.22 5.8 0.31 2.85 0.95 5.7 0.52 2.96 1.37 5.7 0.84 2.74 2 5.49 1.37 3.27 3.17 6.33 1.69 3.17 3.8 6.02 2.22 2.85 4.64 5.49 2.43 2.53 5.17 4.85 1.69 1.37 3.59 2.64 1.8 1.37 3.7 2.43 1.9 1.16 3.9 2.21 1.9 0.95 4.01 1.8 0.95 0.42 1.9 0.74 1.06 0.42 2.01 0.73 1.05 0.32 2 0.64 1.06 0.21 2.11 0.53v16.67q0 0.11 0 0.32 0 0.21 0 0.42 0 0.11 0 0.32 0 0.21 0 0.31 0 0.22 0 0.43 0 0.21 0 0.31 0 0.21 0 0.43 0 0.1 0 0.31c-0.21 3.91-1.16 7.71-2.74 11.19-1.58 3.48-3.8 6.65-6.54 9.39-2.75 2.75-6.02 4.86-9.5 6.34-3.59 1.47-7.39 2.32-11.3 2.42q-0.1 0-0.21 0 0 0-0.1 0-0.11 0-0.21 0-0.11 0-0.21 0 0 0-0.11 0-0.11 0-0.21 0-0.11 0-0.21 0-0.11 0-0.11 0h-47.7-72.73v-49.18c6.02-1.79 11.72-4.54 16.89-8.13 5.07-3.59 9.61-8.02 13.41-13.09 3.69-5.06 6.65-10.66 8.55-16.57 2-6.01 3.06-12.24 3.06-18.47 0-7.81-1.59-15.41-4.54-22.58-2.96-7.18-7.28-13.62-12.77-19.11-5.49-5.49-11.93-9.81-19.11-12.77-7.07-2.95-14.77-4.43-22.48-4.43-7.81 0-15.41 1.48-22.58 4.43-7.08 2.96-13.62 7.28-19.11 12.77-5.49 5.49-9.81 11.93-12.77 19.11-2.95 7.17-4.43 14.77-4.43 22.58 0 6.23 0.95 12.46 2.95 18.37 2.01 6.01 4.86 11.61 8.55 16.67 3.8 4.97 8.34 9.4 13.41 12.99q7.75 5.54 16.78 8.23v114.94q-9.03 2.85-16.78 8.23c-5.18 3.59-9.61 8.02-13.41 13.09-3.69 5.06-6.65 10.66-8.55 16.57-2 6.01-3.06 12.24-3.06 18.47 0 7.7 1.59 15.41 4.54 22.59 2.96 7.07 7.28 13.61 12.77 19.1 5.49 5.38 11.93 9.71 19.11 12.77 7.17 2.96 14.77 4.43 22.48 4.43 7.81 0 15.41-1.47 22.58-4.43 7.18-3.06 13.62-7.39 19.11-12.77 5.49-5.49 9.81-12.03 12.77-19.1 2.95-7.18 4.43-14.89 4.43-22.59 0-6.23-0.95-12.46-2.95-18.47-2.01-5.91-4.86-11.51-8.66-16.57-3.69-5.07-8.23-9.5-13.3-13.09-5.17-3.59-10.87-6.33-16.89-8.23v-31.56h121.07 11.82q0.74-0.11 1.37-0.11 0.74-0.1 1.37-0.21 0.63-0.1 1.37-0.21 0.64-0.1 1.27-0.21 1.79-0.42 3.48-0.84 1.8-0.43 3.49-0.95 1.68-0.53 3.37-1.16 1.59-0.64 3.27-1.38c4.44-2.11 8.66-4.64 12.46-7.7 3.8-3.06 7.28-6.54 10.24-10.45 2.95-3.91 5.48-8.13 7.38-12.67 1.9-4.43 3.28-9.18 4.12-14.03v-19.32-15.51c5.7-2.01 10.98-4.96 15.83-8.55 4.75-3.7 8.97-8.02 12.46-12.98q5.22-7.44 7.91-16.15c1.9-5.7 2.85-11.72 2.85-17.73 0-7.71-1.58-15.41-4.54-22.59-2.95-7.07-7.28-13.62-12.77-19.1-5.49-5.39-11.92-9.82-19.1-12.78-7.18-2.95-14.78-4.43-22.48-4.43zm-0.21 26.7c4.32 0 8.44 0.74 12.45 2.43 3.91 1.59 7.5 4.01 10.45 6.97 3.06 3.06 5.38 6.65 7.07 10.55 1.59 3.91 2.43 8.13 2.43 12.35q0 3.7-0.84 7.28-0.85 3.59-2.43 6.86-1.59 3.28-3.91 6.13-2.32 2.95-5.17 5.17-2.11 1.69-4.54 2.95-2.32 1.27-4.85 2.22-2.64 0.84-5.28 1.27-2.64 0.52-5.38 0.52-0.42 0-0.95 0-0.42-0.1-0.95-0.1-0.42 0-0.95-0.11-0.42 0-0.95 0-1.27-0.21-2.64-0.52-1.37-0.22-2.64-0.64-1.37-0.31-2.64-0.84-1.26-0.53-2.43-1.16-1.26-0.53-2.42-1.27-1.16-0.63-2.22-1.48-1.06-0.74-2.11-1.58-1.06-0.85-2.01-1.8-2.21-2.32-4.01-4.96-1.69-2.63-2.95-5.59-1.16-2.95-1.8-6.02-0.63-3.16-0.63-6.33c0-4.22 0.84-8.44 2.43-12.35 1.69-3.9 4.01-7.49 7.07-10.55 2.95-2.96 6.54-5.38 10.45-6.97 3.9-1.69 8.13-2.43 12.35-2.43zm-183.23 0.43c4.33 0 8.55 0.84 12.46 2.53 3.9 1.58 7.49 4.01 10.44 6.97 3.06 2.95 5.39 6.54 7.08 10.44 1.58 4.02 2.42 8.24 2.42 12.46q0 4.12-1.05 8.02-0.95 4.01-2.96 7.6-2 3.59-4.85 6.54-2.85 3.06-6.34 5.18-1.9 1.26-3.9 2.21-2.11 0.85-4.33 1.48-2.11 0.63-4.43 0.95-2.22 0.32-4.54 0.32-2.22 0-4.43-0.32-2.22-0.32-4.33-0.84-2.22-0.64-4.22-1.59-2.11-0.84-4.01-2-3.48-2.22-6.33-5.18-2.85-3.06-4.86-6.64-2.01-3.59-3.06-7.6-1.06-4.01-1.06-8.13c0-4.22 0.85-8.44 2.43-12.46 1.69-3.9 4.01-7.49 7.07-10.44 2.96-2.96 6.55-5.39 10.45-6.97 3.91-1.69 8.13-2.53 12.35-2.53zm0 227.66q0.95 0 1.9 0 0.95 0.1 1.9 0.21 0.95 0.1 1.9 0.32 0.95 0.1 1.9 0.31c3.48 0.85 6.86 2.32 9.82 4.22 3.06 2.01 5.8 4.44 8.02 7.29 2.21 2.74 3.9 6.01 5.17 9.39 1.16 3.38 1.79 6.97 1.79 10.55 0 4.33-0.84 8.45-2.53 12.46-1.58 3.9-4.01 7.49-6.97 10.45-3.06 3.06-6.54 5.38-10.55 7.07-3.91 1.58-8.13 2.43-12.35 2.43-4.22 0-8.44-0.85-12.35-2.43-3.9-1.69-7.49-4.01-10.55-7.07-2.96-2.96-5.39-6.55-6.97-10.45-1.69-4.01-2.43-8.13-2.43-12.46 0-3.58 0.53-7.17 1.69-10.55 1.27-3.38 2.96-6.65 5.17-9.39 2.22-2.85 4.97-5.28 8.03-7.29 3.06-1.9 6.33-3.37 9.92-4.22q0.84-0.21 1.79-0.31 0.95-0.22 1.9-0.32 0.95-0.11 1.9-0.21 0.95 0 1.9 0z"/>
	<path class="s12" d="m345.24 84.94c-7.81 0-15.41 1.48-22.59 4.43-7.18 2.96-13.61 7.39-19.1 12.78-5.49 5.48-9.82 12.03-12.77 19.1-2.96 7.18-4.44 14.88-4.44 22.59q0 2.85 0.22 5.8 0.31 2.85 0.95 5.7 0.52 2.96 1.37 5.7 0.84 2.74 2 5.49 1.37 3.27 3.17 6.33 1.69 3.17 3.8 6.02 2.22 2.85 4.64 5.49 2.43 2.53 5.17 4.85 1.69 1.37 3.59 2.64 1.8 1.37 3.7 2.43 1.9 1.16 3.9 2.21 1.9 0.95 4.01 1.8 0.95 0.42 1.9 0.74 1.06 0.42 2.01 0.73 1.05 0.32 2 0.64 1.06 0.21 2.11 0.53v16.67q0 0.11 0 0.32 0 0.21 0 0.42 0 0.11 0 0.32 0 0.21 0 0.31 0 0.22 0 0.43 0 0.21 0 0.31 0 0.21 0 0.43 0 0.1 0 0.31c-0.21 3.91-1.16 7.71-2.74 11.19-1.58 3.48-3.8 6.65-6.54 9.39-2.75 2.75-6.02 4.86-9.5 6.34-3.59 1.47-7.39 2.32-11.3 2.42q-0.1 0-0.21 0 0 0-0.1 0-0.11 0-0.21 0-0.11 0-0.21 0 0 0-0.11 0-0.11 0-0.21 0-0.11 0-0.21 0-0.11 0-0.11 0h-47.7-72.73v-49.18c6.02-1.79 11.72-4.54 16.89-8.13 5.07-3.59 9.61-8.02 13.41-13.09 3.69-5.06 6.65-10.66 8.55-16.57 2-6.01 3.06-12.24 3.06-18.47 0-7.81-1.59-15.41-4.54-22.58-2.96-7.18-7.28-13.62-12.77-19.11-5.49-5.49-11.93-9.81-19.11-12.77-7.07-2.95-14.77-4.43-22.48-4.43-7.81 0-15.41 1.48-22.58 4.43-7.08 2.96-13.62 7.28-19.11 12.77-5.49 5.49-9.81 11.93-12.77 19.11-2.95 7.17-4.43 14.77-4.43 22.58 0 6.23 0.95 12.46 2.95 18.37 2.01 6.01 4.86 11.61 8.55 16.67 3.8 4.97 8.34 9.4 13.41 12.99q7.75 5.54 16.78 8.23v114.94q-9.03 2.85-16.78 8.23c-5.18 3.59-9.61 8.02-13.41 13.09-3.69 5.06-6.65 10.66-8.55 16.57-2 6.01-3.06 12.24-3.06 18.47 0 7.7 1.59 15.41 4.54 22.59 2.96 7.07 7.28 13.61 12.77 19.1 5.49 5.38 11.93 9.71 19.11 12.77 7.17 2.96 14.77 4.43 22.48 4.43 7.81 0 15.41-1.47 22.58-4.43 7.07-3.06 13.62-7.39 19.11-12.77 5.49-5.49 9.81-12.03 12.77-19.1 2.95-7.18 4.43-14.89 4.43-22.59 0-6.23-0.95-12.46-2.95-18.47-2.01-5.91-4.86-11.51-8.66-16.57-3.69-5.07-8.23-9.5-13.3-13.09-5.17-3.59-10.87-6.33-16.89-8.23v-31.56h121.07 11.82q0.74-0.11 1.37-0.11 0.74-0.1 1.37-0.21 0.63-0.1 1.37-0.21 0.64-0.1 1.27-0.21 1.79-0.42 3.48-0.84 1.8-0.43 3.49-0.95 1.68-0.53 3.37-1.16 1.59-0.64 3.27-1.38c4.44-2.11 8.66-4.64 12.46-7.7 3.8-3.06 7.28-6.54 10.24-10.45 2.95-3.91 5.48-8.13 7.38-12.67 1.9-4.43 3.28-9.18 4.12-14.03v-19.32-15.51c5.7-2.01 10.98-4.96 15.83-8.55 4.75-3.7 8.97-8.02 12.46-12.98q5.22-7.44 7.91-16.15c1.9-5.7 2.85-11.72 2.85-17.73 0-7.71-1.58-15.41-4.54-22.59-2.95-7.07-7.28-13.62-12.77-19.1-5.49-5.39-11.92-9.82-19.1-12.78-7.18-2.95-14.78-4.43-22.48-4.43zm-0.21 26.7c4.32 0 8.44 0.74 12.45 2.43 3.91 1.59 7.5 4.01 10.45 6.97 3.06 3.06 5.38 6.65 7.07 10.55 1.59 3.91 2.43 8.13 2.43 12.35q0 3.7-0.84 7.28-0.85 3.59-2.43 6.86-1.59 3.28-3.91 6.13-2.32 2.95-5.17 5.17-2.11 1.69-4.54 2.95-2.32 1.27-4.85 2.22-2.64 0.84-5.28 1.27-2.64 0.52-5.38 0.52-0.42 0-0.95 0-0.42-0.1-0.95-0.1-0.42 0-0.95-0.11-0.42 0-0.95 0-1.27-0.21-2.64-0.52-1.37-0.22-2.64-0.64-1.37-0.31-2.64-0.84-1.26-0.53-2.43-1.16-1.26-0.53-2.42-1.27-1.16-0.63-2.22-1.48-1.06-0.74-2.11-1.58-1.06-0.85-2.01-1.8-2.21-2.32-4.01-4.96-1.69-2.63-2.95-5.59-1.16-2.95-1.8-6.02-0.63-3.16-0.63-6.33c0-4.22 0.84-8.44 2.43-12.35 1.69-3.9 4.01-7.49 7.07-10.55 2.95-2.96 6.54-5.38 10.45-6.97 3.9-1.69 8.13-2.43 12.35-2.43zm-183.23 0.43c4.33 0 8.55 0.84 12.46 2.53 3.9 1.58 7.49 4.01 10.44 6.97 3.06 2.95 5.39 6.54 7.08 10.44 1.58 4.02 2.42 8.24 2.42 12.46q0 4.12-1.05 8.02-0.95 4.01-2.96 7.6-2 3.59-4.85 6.54-2.85 3.06-6.34 5.18-1.9 1.26-3.9 2.21-2.11 0.85-4.33 1.48-2.11 0.63-4.43 0.95-2.22 0.32-4.54 0.32-2.22 0-4.43-0.32-2.22-0.32-4.33-0.84-2.22-0.64-4.22-1.59-2.11-0.84-4.01-2-3.48-2.22-6.33-5.18-2.85-3.06-4.86-6.64-2.01-3.59-3.06-7.6-1.06-4.01-1.06-8.13c0-4.22 0.85-8.44 2.43-12.46 1.69-3.9 4.01-7.49 7.07-10.44 2.96-2.96 6.55-5.39 10.45-6.97 3.91-1.69 8.13-2.53 12.35-2.53zm0 227.66q0.95 0 1.9 0 0.95 0.1 1.9 0.21 0.95 0.1 1.9 0.32 0.95 0.1 1.9 0.31c3.48 0.85 6.86 2.32 9.82 4.22 3.06 2.01 5.8 4.44 8.02 7.29 2.21 2.74 3.9 6.01 5.17 9.39 1.16 3.38 1.79 6.97 1.79 10.55 0 4.33-0.84 8.45-2.53 12.46-1.58 3.9-4.01 7.49-6.97 10.45-3.06 3.06-6.54 5.38-10.55 7.07-3.91 1.58-8.13 2.43-12.35 2.43-4.22 0-8.44-0.85-12.35-2.43-3.9-1.69-7.49-4.01-10.55-7.07-2.96-2.96-5.39-6.55-6.97-10.45-1.69-4.01-2.53-8.13-2.53-12.46 0.1-3.58 0.63-7.17 1.79-10.55 1.27-3.38 2.96-6.65 5.17-9.39 2.22-2.85 4.97-5.28 8.03-7.29 3.06-1.9 6.33-3.37 9.92-4.22q0.84-0.21 1.79-0.31 0.95-0.22 1.9-0.32 0.95-0.11 1.9-0.21 0.95 0 1.9 0z"/>
	<g id="Layer 1">
	</g>
</svg>